<?xml version="1.0" standalone="no"?>
<!DOCTYPE svg PUBLIC "-//W3C//DTD SVG 20010904//EN"
 "http://www.w3.org/TR/2001/REC-SVG-20010904/DTD/svg10.dtd">
<svg version="1.0" xmlns="http://www.w3.org/2000/svg"
 width="1024.000000pt" height="1024.000000pt" viewBox="0 0 1024.000000 1024.000000"
 preserveAspectRatio="xMidYMid meet">

<g transform="translate(0.000000,1024.000000) scale(0.100000,-0.100000)"
fill="#000000" stroke="none">
<path d="M5203 8362 c-21 -2 -45 -16 -68 -39 l-35 -35 0 -151 c0 -162 -5 -201
-24 -189 -29 19 -87 32 -142 32 -77 0 -264 -28 -394 -60 -25 -6 -61 -15 -80
-19 -37 -9 -122 -36 -155 -50 -11 -5 -36 -15 -55 -22 -81 -29 -193 -82 -272
-127 -21 -12 -55 -32 -75 -43 -51 -29 -89 -55 -145 -101 l-47 -39 -6 38 c-25
156 -48 207 -134 294 -64 63 -142 110 -231 137 -53 16 -191 25 -265 17 -129
-13 -158 -70 -154 -300 2 -136 2 -138 -22 -151 -13 -7 -32 -13 -42 -14 -9 0
-25 -4 -35 -9 -9 -5 -39 -19 -65 -32 -63 -30 -148 -123 -185 -202 -16 -34 -35
-96 -41 -137 -16 -98 -9 -4368 6 -4445 21 -102 41 -155 84 -230 98 -173 244
-271 459 -311 60 -11 225 -14 835 -13 l759 1 16 -23 c50 -76 149 -153 245
-190 151 -60 389 -36 523 51 57 37 152 130 152 149 0 7 282 11 838 13 750 3
841 5 873 19 53 24 79 67 79 129 0 43 -6 60 -39 109 -22 32 -62 82 -89 112
-27 30 -57 65 -68 78 -10 14 -43 50 -71 81 -29 31 -53 61 -53 67 0 5 32 40 72
77 189 180 306 359 376 572 64 197 67 225 58 759 -5 373 -15 485 -58 665 -48
203 -172 431 -316 582 l-46 47 55 58 c85 89 142 173 203 296 102 206 136 357
137 597 1 283 -54 478 -207 743 -98 169 -283 365 -464 490 -84 58 -352 197
-381 197 -10 0 -21 5 -24 10 -3 6 -17 10 -30 10 -13 0 -26 4 -29 9 -3 5 -16
11 -28 14 -13 3 -41 11 -63 17 -243 69 -540 100 -647 68 -87 -27 -127 -103
-91 -176 10 -20 32 -44 49 -54 30 -17 54 -21 244 -33 52 -3 149 -17 216 -30
490 -98 882 -388 1080 -798 136 -283 136 -645 2 -916 -99 -199 -269 -374 -457
-472 -39 -20 -42 -24 -27 -33 233 -139 373 -282 476 -486 81 -162 104 -276
104 -505 -1 -143 -5 -184 -24 -260 -67 -265 -241 -525 -477 -715 -157 -126
-271 -185 -868 -450 -225 -100 -438 -197 -473 -216 -34 -19 -64 -34 -65 -34
-3 0 -3 178 1 528 l2 282 168 0 c135 0 185 4 248 20 98 25 241 95 316 155 128
103 247 294 282 452 86 386 -143 781 -524 908 -103 34 -171 43 -340 44 -79 1
-145 3 -146 4 -4 3 -6 166 -5 318 l1 146 188 6 c212 6 296 23 417 84 173 86
309 234 381 411 57 142 72 359 34 508 -67 262 -271 486 -520 568 -105 34 -191
45 -365 46 l-141 0 2 463 c2 275 -1 483 -7 514 -17 88 -69 124 -166 115z
m-1922 -637 c54 -19 105 -67 130 -120 18 -39 19 -117 19 -2201 l0 -2161 22
-28 c28 -36 78 -56 120 -48 24 4 50 25 93 71 195 211 306 305 496 413 248 143
548 200 735 142 69 -22 187 -97 196 -126 2 -6 2 -67 0 -134 l-4 -123 -42 34
c-106 86 -236 128 -411 132 -187 4 -288 -21 -326 -82 -25 -42 -22 -103 8 -136
38 -43 70 -51 177 -46 199 10 326 -28 439 -132 118 -108 157 -196 165 -370 l5
-125 -74 75 c-55 56 -94 85 -149 112 -140 69 -155 71 -640 75 -239 1 -543 4
-676 6 l-241 2 -40 27 c-25 17 -49 45 -64 75 l-24 48 -3 2305 c-1 1268 0 2311
3 2318 6 16 33 15 86 -3z m1579 -1830 l0 -1805 -107 0 c-130 0 -302 -28 -433
-70 -117 -38 -331 -142 -425 -206 -73 -49 -165 -121 -177 -139 -4 -5 -8 775
-8 1735 l0 1746 53 51 c232 225 565 395 918 468 63 13 129 24 147 24 l32 1 0
-1805z m909 1076 c162 -50 306 -200 355 -370 20 -69 21 -209 1 -284 -44 -169
-170 -305 -339 -365 -62 -22 -92 -26 -238 -30 l-168 -4 0 28 c0 16 -2 247 -4
514 -2 267 -1 498 2 514 l5 29 162 -6 c117 -5 180 -12 224 -26z m-25 -2087
c91 -22 169 -69 241 -146 110 -116 151 -224 142 -372 -8 -142 -57 -246 -160
-343 -120 -114 -197 -142 -393 -143 -76 -1 -151 -1 -165 0 l-26 0 -5 496 c-3
273 -3 505 0 516 5 19 10 20 156 13 83 -4 177 -13 210 -21z m1522 -1387 c-95
-267 -274 -466 -594 -664 l-23 -14 30 -37 c17 -20 91 -102 166 -182 74 -79
135 -148 135 -152 0 -5 -321 -8 -712 -8 l-713 0 -52 -24 c-35 -17 -64 -41 -93
-78 -38 -49 -129 -133 -136 -125 -5 5 25 85 50 135 37 72 89 126 179 186 86
57 124 75 602 286 560 247 728 338 901 488 79 69 209 209 263 284 39 55 38 20
-3 -95z"/>
<path d="M6334 7346 c-66 -30 -92 -102 -60 -164 8 -15 48 -56 88 -90 41 -34
105 -95 141 -136 44 -49 79 -78 103 -86 83 -28 154 22 161 112 4 46 1 59 -26
99 -17 25 -72 86 -123 135 -126 122 -213 162 -284 130z"/>
<path d="M6802 6531 c-42 -27 -57 -65 -72 -176 -8 -63 -23 -117 -51 -182 -47
-112 -50 -161 -14 -209 15 -20 41 -38 64 -45 78 -23 150 42 204 188 53 141 77
286 58 345 -27 83 -121 121 -189 79z"/>
<path d="M6094 5376 c-56 -45 -68 -117 -28 -174 8 -12 61 -45 117 -72 91 -44
149 -82 298 -197 81 -63 187 -27 209 70 21 94 -112 221 -356 339 -131 64 -192
73 -240 34z"/>
<path d="M6765 4706 c-53 -24 -70 -52 -68 -110 13 -288 5 -338 -78 -517 -54
-116 -59 -148 -29 -197 43 -70 129 -79 195 -21 44 39 138 229 165 334 53 207
25 437 -60 496 -35 25 -89 31 -125 15z"/>
</g>
</svg>
